<?xml version="1.0" encoding="UTF-8" standalone="no"?>
<!-- Created with Inkscape (http://www.inkscape.org/) -->

<svg
   width="58.723999"
   height="75.390678"
   viewBox="-3 -1 21.537391 22.947117"
   version="1.1"
   id="svg1"
   xmlns="http://www.w3.org/2000/svg"
   xmlns:svg="http://www.w3.org/2000/svg">
  <style>
    path {
      fill: #000000;
    }
    @media (prefers-color-scheme: dark) {
      path {
        fill: #ffffff;
      }
    }
  </style>
  <defs
     id="defs1" />
  <g
     id="layer1"
     transform="translate(-9.1646436,-6.9597688)">
    <path
       style="font-size:35.2778px;font-family:Inter;-inkscape-font-specification:'Inter, Normal';stroke-width:5.4;paint-order:fill markers stroke"
       d="m 15.727555,26.906885 q -1.825902,0 -3.324519,-0.689019 -1.481392,-0.68902 -2.359892,-2.015383 -0.8785001,-1.326362 -0.8785001,-3.221166 0,-1.653647 0.6545685,-2.687176 0.6545686,-1.03353 1.7397746,-1.619196 1.102431,-0.602892 2.428794,-0.895726 1.326362,-0.292833 2.669951,-0.465088 1.722548,-0.223931 2.807754,-0.34451 1.085206,-0.120578 1.601971,-0.413411 0.53399,-0.292834 0.53399,-0.999079 v -0.103353 q 0,-1.791451 -1.016304,-2.773303 -1.016304,-0.9990788 -3.014461,-0.9990788 -2.084284,0 -3.255617,0.9129508 -1.171333,0.895726 -1.619196,1.912029 L 9.7158595,11.524524 Q 10.456556,9.7675237 11.714016,8.7856708 12.971477,7.7865924 14.48732,7.3731807 16.003163,6.959769 17.484555,6.959769 q 0.964627,0 2.187637,0.2411568 1.240235,0.2239314 2.377118,0.9129509 1.154107,0.6890196 1.894803,2.0498333 0.757922,1.343588 0.757922,3.600127 v 12.695186 h -3.048912 v -2.618275 h -0.206705 q -0.327285,0.671794 -1.050755,1.395265 -0.723471,0.706245 -1.877579,1.188559 -1.154107,0.482313 -2.790529,0.482313 z m 0.53399,-2.738853 q 1.722549,0 2.911108,-0.671794 1.188559,-0.671794 1.808676,-1.739774 0.620118,-1.085206 0.620118,-2.256539 v -2.669951 q -0.18948,0.223932 -0.826824,0.413412 -0.637343,0.172255 -1.464166,0.310059 -0.809598,0.137804 -1.584745,0.241157 -0.757922,0.08613 -1.205784,0.137803 -1.119657,0.137804 -2.10151,0.482314 -0.964627,0.327284 -1.550294,0.981853 -0.585667,0.637343 -0.585667,1.739774 0,1.498618 1.119657,2.273765 1.136882,0.757921 2.859431,0.757921 z"
       id="text1"
       aria-label="a" />
  </g>
</svg>
